<svg xmlns="http://www.w3.org/2000/svg" xmlns:xlink="http://www.w3.org/1999/xlink" viewBox="0 0 280 250" preserveAspectRatio="xMidYMid" style="display: block; shape-rendering: auto; background: transparent;" width="280" height="250"><style type="text/css">
  .ld-text text {
    text-anchor: middle;
    dominant-baseline: middle;
    font-size: 54px;
    opacity: 0;
    user-select: none;
    pointer-events: none;
  }
</style>
<g style="transform-origin:140px 125px;transform:scale(1)" class="ld-text">
<g transform="translate(140,125)">
  <g transform="scale(0.6750) translate(0,0)"><g class="path" style="opacity: 1; transform-origin: -142.72px 25.68px; transform: matrix3d(1, 0, 0, 0, 0, 1, 0, 0, 0, 0, 1, 0, 0, 0, 0, 1); animation: 1s linear -0.6s infinite normal forwards running animate-qc70db6m6da; transform-box: view-box;"><path d="M0.80 51.09Q0.80 46.93 5.96 43.89Q11.12 40.85 18.60 40.85Q26.08 40.85 34.96 44.37L34.96 44.37Q45.44 36.61 52.36 26.09Q59.28 15.57 59.28 5.89Q59.28-3.79 54.24-8.87Q49.20-13.95 39.76-13.95L39.76-13.95Q31.68-13.95 24.64-5.79L24.64-5.79Q21.12-1.71 18.96 5.61Q16.80 12.93 16.80 22.37L16.80 22.37Q16.80 25.73 17.48 28.17Q18.16 30.61 19 31.73Q19.84 32.85 21.28 33.49L21.28 33.49Q22.96 34.29 25.28 34.29L25.28 34.29Q30.08 34.29 34.20 29.01Q38.32 23.73 38.32 16.53L38.32 16.53Q38.32 9.73 33.76 6.93L33.76 6.93Q32 5.89 29.04 5.57L29.04 5.57L29.04 3.97Q33.36 3.97 36.64 7.21Q39.92 10.45 39.92 16.53L39.92 16.53Q39.92 24.37 35.12 30.45Q30.32 36.53 22.52 36.53Q14.72 36.53 10.72 32.13Q6.72 27.73 6.72 19.73L6.72 19.73Q6.72 9.81 11.84 0.93L11.84 0.93Q14.48-3.71 18.24-7.35Q22-10.99 27.60-13.27Q33.20-15.55 39.76-15.55L39.76-15.55Q49.76-15.55 55.28-9.99Q60.80-4.43 60.80 5.65Q60.80 15.73 53.96 26.33Q47.12 36.93 36.56 45.01L36.56 45.01Q39.44 46.21 44.48 48.85Q49.52 51.49 52.92 52.77Q56.32 54.05 59.04 54.05Q61.76 54.05 63.80 53.33Q65.84 52.61 67.04 51.65Q68.24 50.69 69.12 49.57L69.12 49.57Q70.40 47.89 70.72 47.01L70.72 47.01L72.24 47.41Q68.80 56.77 52.16 56.77L52.16 56.77Q47.36 56.77 42.72 55.69Q38.08 54.61 35.56 53.53Q33.04 52.45 28.80 50.37L28.80 50.37Q17.76 56.77 8.24 56.77L8.24 56.77Q4.48 56.77 2.64 55.13Q0.80 53.49 0.80 51.09L0.80 51.09" style="fill: rgb(0, 0, 0);" transform="translate(-179.240,-16.625)"></path></g><g class="path" style="opacity: 1; transform-origin: -164.36px 36.51px; transform: matrix3d(1, 0, 0, 0, 0, 1, 0, 0, 0, 0, 1, 0, 0, 0, 0, 1); animation: 1s linear -0.54s infinite normal forwards running animate-qc70db6m6da; transform-box: view-box;"><path d="M2.64 51.09L2.64 51.09Q2.64 52.93 4.24 54.05Q5.84 55.17 8.64 55.17L8.64 55.17Q17.12 55.17 27.12 49.49L27.12 49.49Q17.84 45.01 10.96 45.01L10.96 45.01Q7.76 45.01 5.20 46.61Q2.64 48.21 2.64 51.09" style="fill: rgb(0, 0, 0);" transform="translate(-179.240,-16.625)"></path></g><g class="path" style="opacity: 1; transform-origin: -94.56px 10.98px; transform: matrix3d(1, 0, 0, 0, 0, 1, 0, 0, 0, 0, 1, 0, 0, 0, 0, 1); animation: 1s linear -0.48s infinite normal forwards running animate-qc70db6m6da; transform-box: view-box;"><path d="M72 3.73L72 3.73Q70.08 3.73 68 5.97L68 5.97L66.80 5.01Q67.36 3.89 69.28 3.01Q71.20 2.13 73.52 2.13L73.52 2.13Q80.80 2.13 80.80 8.69L80.80 8.69Q80.80 11.49 79.36 18.69Q77.92 25.89 77.92 28.13L77.92 28.13Q77.92 31.57 81.20 31.57L81.20 31.57Q83.52 31.57 85.72 28.85Q87.92 26.13 89.52 21.33L89.52 21.33L92.88 2.85Q98.80 2.85 101.52 2.37L101.52 2.37L102.56 2.13L97.20 32.37Q99.60 32.13 101.20 30.13L101.20 30.13L102.40 31.09Q100 33.97 96.40 33.97Q92.80 33.97 90.80 32.21Q88.80 30.45 88.72 27.25L88.72 27.25Q85.36 33.97 78.80 33.97L78.80 33.97Q74.08 33.97 71.44 31.29Q68.80 28.61 68.80 23.89L68.80 23.89Q68.80 21.41 70.32 14.33Q71.84 7.25 72 3.73" style="fill: rgb(0, 0, 0);" transform="translate(-179.240,-16.625)"></path></g><g class="path" style="opacity: 1; transform-origin: -56.92px 10.98px; transform: matrix3d(1, 0, 0, 0, 0, 1, 0, 0, 0, 0, 1, 0, 0, 0, 0, 1); animation: 1s linear -0.42s infinite normal forwards running animate-qc70db6m6da; transform-box: view-box;"><path d="M119.20 33.97Q113.04 33.97 109.84 30.89Q106.64 27.81 106.64 23.13Q106.64 18.45 107.48 15.13Q108.32 11.81 110.24 8.73Q112.16 5.65 116.04 3.89Q119.92 2.13 125.72 2.13Q131.52 2.13 134.76 5.21Q138 8.29 138 13.65L138 13.65Q138 22.77 133.16 28.37Q128.32 33.97 119.20 33.97L119.20 33.97 zM115.68 25.73L115.68 25.73Q115.68 32.13 119.40 32.13Q123.12 32.13 126.04 25.69Q128.96 19.25 128.96 10.37L128.96 10.37Q128.96 3.65 125.32 3.65Q121.68 3.65 118.68 9.77Q115.68 15.89 115.68 25.73" style="fill: rgb(0, 0, 0);" transform="translate(-179.240,-16.625)"></path></g><g class="path" style="opacity: 1; transform-origin: -25.88px 10.24px; transform: matrix3d(1, 0, 0, 0, 0, 1, 0, 0, 0, 0, 1, 0, 0, 0, 0, 1); animation: 1s linear -0.36s infinite normal forwards running animate-qc70db6m6da; transform-box: view-box;"><path d="M149.44 31.89L149.44 31.89Q157.36 31.89 157.36 20.21L157.36 20.21Q157.36 17.33 156.52 13.41Q155.68 9.49 155.52 8.53L155.52 8.53Q150.64 13.57 144.56 14.61L144.56 14.61L144.56 12.69Q150.32 11.41 155.36 6.13L155.36 6.13L155.36 5.81Q155.36 3.89 155.92 2.05Q156.48 0.21 157.04-0.67L157.04-0.67L157.60-1.55L159.52-1.55Q159.52 1.97 160.64 4.89Q161.76 7.81 163.12 9.61Q164.48 11.41 165.60 14.33Q166.72 17.25 166.72 20.77L166.72 20.77Q166.72 26.45 162.44 30.21Q158.16 33.97 152.16 33.97Q146.16 33.97 143.08 31.25Q140 28.53 140 24.97Q140 21.41 141.76 19.85Q143.52 18.29 145.92 18.29Q148.32 18.29 149.88 19.85Q151.44 21.41 151.44 23.85Q151.44 26.29 149.92 27.97Q148.40 29.65 146 29.65L146 29.65Q144.96 29.65 143.84 29.33L143.84 29.33Q145.60 31.89 149.44 31.89" style="fill: rgb(0, 0, 0);" transform="translate(-179.240,-16.625)"></path></g><g class="path" style="opacity: 1; transform-origin: 9.32px 6.83px; transform: matrix3d(1, 0, 0, 0, 0, 1, 0, 0, 0, 0, 1, 0, 0, 0, 0, 1); animation: 1s linear -0.3s infinite normal forwards running animate-qc70db6m6da; transform-box: view-box;"><path d="M201.36 32.37L201.36 32.37Q203.28 32.37 205.36 30.13L205.36 30.13L206.56 31.09Q206 32.21 204.08 33.09Q202.16 33.97 199.84 33.97L199.84 33.97Q192.56 33.97 192.56 27.41L192.56 27.41Q192.56 24.61 194 17.41Q195.44 10.21 195.44 7.97L195.44 7.97Q195.44 4.53 192.16 4.53L192.16 4.53Q189.44 4.53 186.92 8.21Q184.40 11.89 182.80 18.21L182.80 18.21L180.16 33.25L170.56 33.25L179.44-16.99Q177.04-16.75 175.44-14.75L175.44-14.75L174.24-15.71Q176.64-18.59 180.28-18.59Q183.92-18.59 185.92-16.75Q187.92-14.91 187.92-11.55L187.92-11.55Q187.92-10.91 187.76-9.47L187.76-9.47L184.40 9.49Q187.68 2.13 194.56 2.13L194.56 2.13Q199.28 2.13 201.92 4.81Q204.56 7.49 204.56 12.21L204.56 12.21Q204.56 14.69 203.04 21.77Q201.52 28.85 201.36 32.37" style="fill: rgb(0, 0, 0);" transform="translate(-179.240,-16.625)"></path></g><g class="path" style="opacity: 1; transform-origin: 48.36px 10.98px; transform: matrix3d(1, 0, 0, 0, 0, 1, 0, 0, 0, 0, 1, 0, 0, 0, 0, 1); animation: 1s linear -0.24s infinite normal forwards running animate-qc70db6m6da; transform-box: view-box;"><path d="M238.56 33.97L238.56 33.97Q231.52 33.97 230.88 27.81L230.88 27.81Q227.36 33.97 222 33.97Q216.64 33.97 213.48 30.73Q210.32 27.49 210.32 21.65L210.32 21.65Q210.32 12.53 214.80 7.33Q219.28 2.13 226.40 2.13L226.40 2.13Q232.24 2.13 234.16 7.65L234.16 7.65Q234.56 5.25 235.04 2.85L235.04 2.85Q240.96 2.85 243.84 2.37L243.84 2.37L244.88 2.13L239.36 32.37Q241.76 32.13 243.36 30.13L243.36 30.13L244.56 31.09Q242.16 33.97 238.56 33.97 zM219.36 25.73Q219.36 29.33 220.28 30.73Q221.20 32.13 223.12 32.13Q225.04 32.13 227.04 30.05L227.04 30.05Q229.68 27.33 231.28 23.17L231.28 23.17Q231.52 22.13 232.20 18.17Q232.88 14.21 233.36 11.65L233.36 11.65Q233.12 8.61 231.68 6.37Q230.24 4.13 228.08 4.13L228.08 4.13Q224.16 4.13 221.76 11.13Q219.36 18.13 219.36 25.73L219.36 25.73" style="fill: rgb(0, 0, 0);" transform="translate(-179.240,-16.625)"></path></g><g class="path" style="opacity: 1; transform-origin: 94.96px 10.98px; transform: matrix3d(1, 0, 0, 0, 0, 1, 0, 0, 0, 0, 1, 0, 0, 0, 0, 1); animation: 1s linear -0.18s infinite normal forwards running animate-qc70db6m6da; transform-box: view-box;"><path d="M280.88 31.09Q278.48 33.97 274.88 33.97Q271.28 33.97 269.24 32.13Q267.20 30.29 267.20 27.33L267.20 27.33Q267.20 26.29 268.48 18.61L268.48 18.61L271.12 4.29L267.76 4.29L267.92 2.85L271.36 2.85Q277.28 2.85 280.08 2.37L280.08 2.37L281.20 2.13L275.68 32.37Q278.08 32.13 279.68 30.13L279.68 30.13L280.88 31.09" style="fill: rgb(0, 0, 0);" transform="translate(-179.240,-16.625)"></path></g><g class="path" style="opacity: 1; transform-origin: 98.72px -22.82px; transform: matrix3d(1, 0, 0, 0, 0, 1, 0, 0, 0, 0, 1, 0, 0, 0, 0, 1); animation: 1s linear -0.12s infinite normal forwards running animate-qc70db6m6da; transform-box: view-box;"><path d="M273.84-5.55Q272.16-7.23 272.16-9.63Q272.16-12.03 273.84-13.75Q275.52-15.47 277.92-15.47Q280.32-15.47 282.04-13.75Q283.76-12.03 283.76-9.63Q283.76-7.23 282.04-5.55Q280.32-3.87 277.92-3.87Q275.52-3.87 273.84-5.55" style="fill: rgb(0, 0, 0);" transform="translate(-179.240,-16.625)"></path></g><g class="path" style="opacity: 1; transform-origin: 124.4px 10.98px; transform: matrix3d(1, 0, 0, 0, 0, 1, 0, 0, 0, 0, 1, 0, 0, 0, 0, 1); animation: 1s linear -0.06s infinite normal forwards running animate-qc70db6m6da; transform-box: view-box;"><path d="M316.40 32.37L316.40 32.37Q318.32 32.37 320.40 30.13L320.40 30.13L321.60 31.09Q321.04 32.21 319.12 33.09Q317.20 33.97 314.88 33.97L314.88 33.97Q307.60 33.97 307.60 27.41L307.60 27.41Q307.60 24.61 309.04 17.41Q310.48 10.21 310.48 7.97L310.48 7.97Q310.48 4.53 307.20 4.53L307.20 4.53Q304.56 4.53 302.12 7.97Q299.68 11.41 298.08 17.41L298.08 17.41L295.36 32.37Q297.84 32.13 299.44 30.13L299.44 30.13L300.64 31.09Q298.24 33.97 294.64 33.97Q291.04 33.97 289 32.13Q286.96 30.29 286.96 27.33L286.96 27.33Q286.96 26.21 288.24 18.53L288.24 18.53L290.88 3.73Q288.48 3.97 286.88 5.97L286.88 5.97L285.68 5.01Q288.08 2.13 291.72 2.13Q295.36 2.13 297.36 3.97Q299.36 5.81 299.36 9.17L299.36 9.17L299.36 9.65Q302.64 2.13 309.60 2.13L309.60 2.13Q314.32 2.13 316.96 4.81Q319.60 7.49 319.60 12.21L319.60 12.21Q319.60 14.69 318.08 21.77Q316.56 28.85 316.40 32.37" style="fill: rgb(0, 0, 0);" transform="translate(-179.240,-16.625)"></path></g><g class="path" style="opacity: 1; transform-origin: 162.64px 6.83px; transform: matrix3d(1, 0, 0, 0, 0, 1, 0, 0, 0, 0, 1, 0, 0, 0, 0, 1); animation: 1s linear 0s infinite normal forwards running animate-qc70db6m6da; transform-box: view-box;"><path d="M336.88 17.81L336.88 17.81L334 33.25L324.48 33.25L333.52-16.99Q331.12-16.75 329.52-14.75L329.52-14.75L328.32-15.71Q330.72-18.59 334.36-18.59Q338-18.59 340-16.75Q342-14.91 342-11.55L342-11.55Q342-10.91 341.84-9.47L341.84-9.47Q340 0.69 337.84 12.45L337.84 12.45Q339.84 7.57 343.60 4.85Q347.36 2.13 351.60 2.13Q355.84 2.13 357.56 3.81Q359.28 5.49 359.28 8.01Q359.28 10.53 357.76 12.13Q356.24 13.73 353.80 13.73Q351.36 13.73 350.04 12.33Q348.72 10.93 348.72 8.17Q348.72 5.41 350.64 3.97L350.64 3.97Q342.96 4.85 338.40 15.33L338.40 15.33Q339.52 15.17 340.32 15.17L340.32 15.17Q344.56 15.17 347 16.85Q349.44 18.53 350.16 20.97Q350.88 23.41 351.20 25.85Q351.52 28.29 352.24 29.97Q352.96 31.65 354.80 31.65Q356.64 31.65 357.68 30.13L357.68 30.13L358.88 31.09Q358.32 32.21 356.40 33.09Q354.48 33.97 351.48 33.97Q348.48 33.97 346.20 32.45Q343.92 30.93 343.04 28.65Q342.16 26.37 341.60 24.13L341.60 24.13Q340.08 18.37 336.88 17.81" style="fill: rgb(0, 0, 0);" transform="translate(-179.240,-16.625)"></path></g></g><text dy="0.35em" fill="#000000" font-family="Sail" font-size="54">Quosha ink</text>
</g>
</g><style type="text/css">@keyframes animate-qc70db6m6da { 0.00% {transform: translate(0.00px,0.00px) rotate(0.00deg) scale(1.00, 1.00) skew(0deg, 0.00deg) ;opacity: 1.00;}2.00% {animation-timing-function: cubic-bezier(0.20,0.39,0.50,0.97);transform: translate(0.00px,-1.08px) rotate(0.00deg) ;}36.00% {animation-timing-function: cubic-bezier(0.50,0.03,0.80,0.61);transform: translate(0.00px,-10.00px) rotate(0.00deg) ;}72.00% {transform: translate(0.00px,-0.12px) rotate(0.00deg) ;}74.00% {animation-timing-function: cubic-bezier(0.24,0.43,0.48,0.91);transform: translate(0.00px,0.00px) rotate(0.00deg) scale(1.00, 0.95) ;}86.00% {animation-timing-function: cubic-bezier(0.53,0.08,0.77,0.57);transform: translate(0.00px,0.00px) rotate(0.00deg) scale(1.00, 0.80) ;}100.00% {animation-timing-function: cubic-bezier(0.53,0.08,0.77,0.57);transform: translate(0.00px,0.00px) rotate(0.00deg) scale(1.00, 1.00) ;} }</style><!-- [ldio] generated by https://loading.io --></svg>